<svg xmlns="http://www.w3.org/2000/svg" width="24" height="24" viewBox="0 0 24 24" fill="none" stroke="currentColor" stroke-width="2" stroke-linecap="round" stroke-linejoin="round"><path d="M14.5 17.5c0-2.5 2-5 2-5s2 2.5 2 5c0 2.2-1.8 4-4 4s-4-1.8-4-4.5c0-2.5 2-5 2-5s2 2.5 2 5Z"/><path d="M8.5 17.5c0-2.5 2-5 2-5s2 2.5 2 5c0 2.2-1.8 4-4 4s-4-1.8-4-4.5c0-2.5 2-5 2-5s2 2.5 2 5Z"/><path d="M4.5 17.5c0-2.5 2-5 2-5s2 2.5 2 5c0 2.2-1.8 4-4 4s-4-1.8-4-4.5c0-2.5 2-5 2-5s2 2.5 2 5Z"/><path d="M12 10.5V7a1 1 0 0 1 1-1h1.5a2 2 0 0 1 2 2V10"/><path d="M18 10V7a1 1 0 0 0-1-1h-1.5a2 2 0 0 0-2 2V10"/><path d="M12 2v2"/></svg>